<?xml version="1.0" standalone="no"?>
<!DOCTYPE svg PUBLIC "-//W3C//DTD SVG 20010904//EN"
 "http://www.w3.org/TR/2001/REC-SVG-20010904/DTD/svg10.dtd">
<svg version="1.0"
    xmlns="http://www.w3.org/2000/svg" width="512.000000pt" height="512.000000pt" viewBox="0 0 512.000000 512.000000" preserveAspectRatio="xMidYMid meet">
    <metadata>
Created by potrace 1.16, written by Peter Selinger 2001-2019
    </metadata>
    <g transform="translate(0.000000,512.000000) scale(0.100000,-0.100000)" fill="#1F5F88" stroke="none">
        <path d="M1170 3725 c0 -234 -2 -425 -5 -425 -2 0 -28 9 -57 19 -29 11 -77 24 -106 30 -77 16 -276 13 -350 -4 -228 -54 -429 -212 -528 -415 -20 -41 -40 -82 -45 -92 -4 -9 -16 -53 -25 -99 -21 -107 -15 -340 11 -409 9 -25 18 -49 19 -55 6 -28 49 -110 85 -163 81 -119 227 -242 346 -290 110 -44 136 -51 237 -63 123 -13 237 -2 342 35 85 29 91 35 71 72 -8 16 -31 65 -51 109 -20 44 -38 81 -39 83 -1 2 -27 -7 -56 -18 -78 -32 -237 -39 -315 -15 -172 53 -291 153 -360 304 -73 161 -71 318 7 473 47 93 69 121 159 198 47 41 164 89 244 102 86 13 225 0 277 -27 34 -18 49 -19 49 -3 0 10 25 69 70 163 l19 40 1 -370 c1 -444 12 -543 79 -684 92 -194 247 -338 446 -414 105 -40 174 -50 325 -45 124 5 142 8 227 40 50 19 118 50 150 69 58 34 227 191 235 219 4 10 32 -13 94 -75 144 -147 322 -234 512 -250 l82 -8 0 132 0 131 -49 0 c-57 0 -170 36 -238 76 -47 27 -140 115 -179 170 -11 16 -34 61 -50 99 -37 91 -46 253 -18 337 30 94 64 155 120 216 61 68 123 111 215 149 57 24 78 27 184 27 109 1 127 -2 192 -27 75 -30 186 -106 222 -154 11 -15 26 -34 32 -42 14 -15 69 -128 75 -151 2 -8 8 -33 13 -55 6 -24 11 -217 11 -472 l0 -433 130 0 130 0 0 403 c0 221 -5 444 -10 494 -38 359 -334 653 -699 694 -271 31 -548 -79 -710 -283 l-44 -56 -37 47 c-130 164 -348 282 -553 297 l-87 7 0 -126 c0 -143 -9 -130 97 -141 72 -7 187 -57 256 -112 69 -54 150 -172 174 -253 22 -76 22 -288 -1 -350 -22 -59 -82 -157 -125 -205 -47 -50 -126 -101 -209 -133 -57 -23 -83 -27 -177 -27 -92 -1 -121 3 -174 23 -178 65 -295 184 -352 356 l-24 70 -3 843 -3 842 -129 0 -130 0 0 -425z"/>
        <path d="M3820 3346 c0 -2 29 -55 64 -117 34 -63 78 -141 96 -174 17 -33 46 -85 63 -116 18 -30 72 -129 121 -220 48 -90 96 -175 105 -189 9 -14 25 -43 36 -65 11 -22 23 -42 26 -45 3 -3 27 -45 54 -95 27 -49 59 -108 73 -129 l24 -39 -35 -67 c-19 -37 -55 -103 -80 -146 -76 -134 -89 -157 -122 -219 -18 -33 -60 -109 -94 -169 -34 -60 -61 -113 -61 -117 0 -4 -6 -14 -13 -21 -7 -7 -20 -26 -29 -43 -8 -16 -48 -90 -89 -163 -41 -74 -85 -155 -99 -180 -14 -26 -28 -48 -32 -50 -5 -2 -8 -8 -8 -13 0 -5 65 -9 148 -9 l147 0 43 78 c49 90 116 207 205 362 11 19 43 78 72 130 29 52 62 111 74 130 11 19 24 42 28 50 4 8 49 89 101 180 52 91 105 186 118 213 l24 47 -32 61 c-18 33 -47 86 -65 117 -17 31 -40 73 -51 92 -10 19 -42 78 -71 130 -88 156 -108 193 -132 240 -13 25 -26 47 -29 50 -3 3 -15 23 -27 45 -11 22 -72 135 -136 250 l-114 210 -152 3 c-83 1 -151 1 -151 -2z"/>
        <path d="M4731 2612 l-61 -108 73 -132 c39 -72 76 -130 81 -129 9 3 54 78 129 217 22 41 53 100 70 130 16 30 36 64 43 75 8 11 14 27 14 37 0 16 -13 18 -144 18 l-144 0 -61 -108z"/>
    </g>
</svg>
