<?xml version="1.0" standalone="no"?>
<!DOCTYPE svg PUBLIC "-//W3C//DTD SVG 20010904//EN"
 "http://www.w3.org/TR/2001/REC-SVG-20010904/DTD/svg10.dtd">
<svg width="49" height="49" viewBox="0 0 49 49" fill="none" xmlns="http://www.w3.org/2000/svg">
<path d="M8.16732 12.25H4.08398V40.8333C4.08398 43.0792 5.92148 44.9167 8.16732 44.9167H36.7507V40.8333H8.16732V12.25Z" fill="#005C81"/>
<path d="M40.8333 4.08337H16.3333C14.0875 4.08337 12.25 5.92087 12.25 8.16671V32.6667C12.25 34.9125 14.0875 36.75 16.3333 36.75H40.8333C43.0792 36.75 44.9167 34.9125 44.9167 32.6667V8.16671C44.9167 5.92087 43.0792 4.08337 40.8333 4.08337ZM28.6038 30.625C27.3992 30.625 26.46 29.6655 26.46 28.4813C26.46 27.2767 27.4196 26.358 28.6038 26.358C29.8083 26.358 30.7271 27.2767 30.7271 28.4813C30.7067 29.6655 29.8083 30.625 28.6038 30.625ZM33.7079 18.028C32.4217 19.9267 31.1967 20.4984 30.5229 21.7234C30.2575 22.2134 30.1554 22.54 30.1554 24.1325H27.0521C27.0521 23.2955 26.9296 21.9275 27.5829 20.7638C28.42 19.2734 29.9921 18.3955 30.9108 17.0888C31.8908 15.7005 31.3396 13.128 28.5833 13.128C26.7867 13.128 25.8883 14.4959 25.5208 15.6392L22.7238 14.4755C23.4996 12.1684 25.5617 10.2084 28.5629 10.2084C31.0742 10.2084 32.8096 11.3517 33.6875 12.7809C34.4429 14.0263 34.8717 16.313 33.7079 18.028Z" fill="#005C81"/>
</svg>
