<?xml version="1.0" encoding="UTF-8"?>
<svg width="80px" height="80px" viewBox="0 0 80 80" version="1.1" xmlns="http://www.w3.org/2000/svg" xmlns:xlink="http://www.w3.org/1999/xlink">
    <!-- Generator: Sketch 56.3 (81716) - https://sketch.com -->
    <title>wizard</title>
    <desc>Created with Sketch.</desc>
    <g id="Page-1" stroke="none" stroke-width="1" fill="none" fill-rule="evenodd">
        <g id="add-property" transform="translate(-1199.000000, -296.000000)">
            <g id="Group-6-Copy" transform="translate(1078.000000, 240.000000)">
                <g id="Group-5" transform="translate(53.000000, 56.000000)">
                    <g id="wizard" transform="translate(68.000000, 0.000000)">
                        <g fill="#1D577B" id="Oval">
                            <circle cx="40" cy="40" r="40"></circle>
                        </g>
                        <polygon id="Path" fill="#FFFFFF" fill-rule="nonzero" points="23 53.820025 25.9689751 57 41.4571429 40.6833458 38.4386327 37.5555556"></polygon>
                        <polygon id="Path" fill="#FFFFFF" fill-rule="nonzero" points="39.5142857 36.5194377 42.4708116 39.5 46.3142857 35.6750068 43.3085269 32.6944444"></polygon>
                        <path d="M49.9274872,29.7767866 C50.1259937,29.7871228 50.3200992,29.716273 50.4656082,29.5803991 L53.9389087,26.0948505 C54.182079,25.7695427 54.1163472,25.3078912 53.7921825,25.0639573 C53.5313151,24.8675698 53.1725054,24.8675698 52.911638,25.0639573 L49.4383375,28.5495059 C49.1586494,28.8358181 49.1586494,29.2940869 49.4383375,29.5803991 C49.5686775,29.7087557 49.7448052,29.7794176 49.9274872,29.7767866 Z" id="Path" fill="#FFFFFF" fill-rule="nonzero"></path>
                        <path d="M56.2153654,32.6944444 L50.9846346,32.6944444 C50.5513185,32.6944444 50.2,33.1297549 50.2,33.6666667 C50.2,34.2035785 50.5513185,34.6388889 50.9846346,34.6388889 L56.2153654,34.6388889 C56.6486815,34.6388889 57,34.2035785 57,33.6666667 C56.9998999,33.1296308 56.6486815,32.6944444 56.2153654,32.6944444 Z" id="Path" fill="#FFFFFF" fill-rule="nonzero"></path>
                        <path d="M53.8580117,40.1885235 L50.4476678,36.758712 C50.1516278,36.5248738 49.7350572,36.5248738 49.4390172,36.758712 C49.1584228,37.0568117 49.1584228,37.5233785 49.4390172,37.8214783 L52.8493611,41.2029319 C52.9691562,41.3470812 53.1431946,41.4345509 53.3296446,41.4444444 C53.530345,41.4364927 53.7200129,41.3497626 53.8580117,41.2029319 C54.1365835,40.9558715 54.1632454,40.5285089 53.9175874,40.2483469 C53.899016,40.2272654 53.8791574,40.207201 53.8580117,40.1885235 Z" id="Path" fill="#FFFFFF" fill-rule="nonzero"></path>
                        <path d="M41.1663604,29.5795711 C41.4788321,29.8438467 41.9373123,29.8438467 42.2497839,29.5795711 C42.4881673,29.2770587 42.4881673,28.8513805 42.2497839,28.5488681 L38.7533065,25.0639628 C38.4268845,24.8199799 37.9638797,24.8859314 37.719181,25.2111792 C37.5221778,25.4729182 37.5221778,25.8329268 37.719181,26.0946658 L41.1663604,29.5795711 Z" id="Path" fill="#FFFFFF" fill-rule="nonzero"></path>
                        <path d="M45.3428571,28.8055556 C45.8793306,28.8055556 46.3142857,28.4539449 46.3142857,28.0202683 L46.3142857,22.7852872 C46.3142857,22.3516107 45.8793306,22 45.3428571,22 C44.8063836,22 44.3714286,22.3516107 44.3714286,22.7852872 L44.3714286,28.0203685 C44.3714286,28.4540451 44.8063836,28.8055556 45.3428571,28.8055556 Z" id="Path" fill="#FFFFFF" fill-rule="nonzero"></path>
                    </g>
                </g>
            </g>
        </g>
    </g>
</svg>